<svg width="32" height="32" viewBox="0 0 32 32" fill="none" xmlns="http://www.w3.org/2000/svg">
<g filter="url(#filter0_i)">
<path d="M11.7174 17.1142C11.6245 17.1142 9.57989 17.1142 8.65054 17.1142C8.15489 17.1142 8 16.9264 8 16.457C8 15.2052 8 13.9221 8 12.6703C8 12.1695 8.18587 12.0131 8.65054 12.0131H11.7174C11.7174 11.9192 11.7174 10.104 11.7174 9.25907C11.7174 8.00725 11.9342 6.81803 12.5538 5.72269C13.2043 4.59606 14.1337 3.84497 15.3109 3.40684C16.0853 3.12518 16.8598 3 17.6962 3H20.732C21.1657 3 21.3516 3.18777 21.3516 3.62591V7.19357C21.3516 7.63171 21.1657 7.81948 20.732 7.81948C19.8956 7.81948 19.0592 7.81948 18.2228 7.85078C17.3864 7.85078 16.9527 8.25761 16.9527 9.13388C16.9217 10.0727 16.9527 10.9803 16.9527 11.9505H20.5462C21.0418 11.9505 21.2277 12.1382 21.2277 12.639V16.4257C21.2277 16.9264 21.0728 17.0829 20.5462 17.0829C19.431 17.0829 17.0456 17.0829 16.9527 17.0829V27.2852C16.9527 27.8172 16.7978 28.005 16.2402 28.005C14.9391 28.005 13.669 28.005 12.3679 28.005C11.9033 28.005 11.7174 27.8172 11.7174 27.3478C11.7174 24.0618 11.7174 17.2081 11.7174 17.1142V17.1142Z" fill="white"/>
</g>
<defs>
<filter id="filter0_i" x="8" y="3" width="13.3516" height="30.005" filterUnits="userSpaceOnUse" color-interpolation-filters="sRGB">
<feFlood flood-opacity="0" result="BackgroundImageFix"/>
<feBlend mode="normal" in="SourceGraphic" in2="BackgroundImageFix" result="shape"/>
<feColorMatrix in="SourceAlpha" type="matrix" values="0 0 0 0 0 0 0 0 0 0 0 0 0 0 0 0 0 0 127 0" result="hardAlpha"/>
<feOffset dy="5"/>
<feGaussianBlur stdDeviation="5"/>
<feComposite in2="hardAlpha" operator="arithmetic" k2="-1" k3="1"/>
<feColorMatrix type="matrix" values="0 0 0 0 0 0 0 0 0 0 0 0 0 0 0 0 0 0 0.25 0"/>
<feBlend mode="normal" in2="shape" result="effect1_innerShadow"/>
</filter>
</defs>
</svg>
