<svg width="32" height="32" viewBox="0 0 32 32" fill="none" xmlns="http://www.w3.org/2000/svg">
<path fill-rule="evenodd" clip-rule="evenodd" d="M12.775 28.0422C12.7796 27.7417 12.7879 27.5418 12.795 27.3725C12.8018 27.2099 12.8074 27.0755 12.8074 26.9073C12.8074 26.7301 12.8044 26.4178 12.8003 26.0001C12.7957 25.5173 12.7897 24.8937 12.7854 24.1752C8.33537 25.1452 7.39536 22.0213 7.39536 22.0213C6.66936 20.1653 5.61936 19.6713 5.61936 19.6713C4.16536 18.6753 5.72736 18.6953 5.72736 18.6953C7.33336 18.8093 8.17736 20.3513 8.17736 20.3513C9.60536 22.8053 11.9234 22.0973 12.8354 21.6853C12.9794 20.6473 13.3934 19.9393 13.8514 19.5373C10.2994 19.1313 6.56336 17.7533 6.56336 11.5993C6.56336 9.84525 7.18736 8.41126 8.21136 7.28726C8.04536 6.88126 7.49736 5.24726 8.36736 3.03726C8.36736 3.03726 9.71137 2.60526 12.7674 4.68326C14.0434 4.32726 15.4114 4.14926 16.7734 4.14326C18.1314 4.15126 19.5014 4.32726 20.7794 4.68526C23.8334 2.60726 25.1754 3.03926 25.1754 3.03926C26.0474 5.25126 25.4994 6.88326 25.3354 7.28926C26.3614 8.41326 26.9794 9.84725 26.9794 11.6013C26.9794 17.7713 23.2394 19.1293 19.6754 19.5273C20.2494 20.0233 20.7614 21.0033 20.7614 22.5013C20.7614 23.9382 20.7524 25.189 20.7465 26.0171C20.7436 26.4268 20.7414 26.7331 20.7414 26.9073C20.7414 27.0373 20.6738 27.2383 20.6009 27.4554C20.535 27.6513 20.4648 27.8603 20.4358 28.0422H12.775Z" fill="#202020"/>
</svg>
