<svg width="309" height="286" viewBox="0 0 309 286" fill="none" xmlns="http://www.w3.org/2000/svg">
<path d="M36.7432 72.5382C36.7432 72.5382 83.2561 169.44 83.2561 285.723H131.43C131.43 285.723 135.307 127.911 36.7432 72.5382Z" fill="#6CAE00"/>
<path d="M272.296 72.5382C272.296 72.5382 225.783 169.44 225.783 285.723H177.609C177.609 285.723 173.732 127.911 272.296 72.5382Z" fill="#6CAE00"/>
<path d="M308.178 161.134C308.178 161.134 273.313 202.664 273.313 285.723H225.139C225.14 285.723 216.813 188.821 308.178 161.134Z" fill="#6CAE00"/>
<path d="M0.769531 161.134C0.769531 161.134 35.634 202.664 35.634 285.723H83.8083C83.8076 285.723 92.1347 188.821 0.769531 161.134Z" fill="#6CAE00"/>
<path d="M229.035 0C229.035 0 178.646 120.712 178.646 285.723H130.472C130.472 285.723 121.612 91.3652 229.035 0Z" fill="#6CAE00"/>
</svg>
