<svg width="58" height="66" viewBox="0 0 58 66" fill="none" xmlns="http://www.w3.org/2000/svg">
<path d="M0.155687 2.18486L4.43922 56.9849C4.50352 57.8078 5.06053 58.5096 5.8474 58.759L28.3874 65.9053C28.786 66.0316 29.214 66.0316 29.6126 65.9053L52.1526 58.759C52.9395 58.5096 53.4965 57.8078 53.5608 56.9849L57.8443 2.18486C57.9365 1.00669 57.0053 0 55.8237 0H2.17652C0.99485 0 0.0637136 1.00669 0.155687 2.18486ZM46.8595 19.1875H18.9429L19.7854 26.9566H46.2523L44.5209 49.1052L29.0001 54.026L13.4792 49.1052L12.5747 37.5338H20.7213V43.2097L29.2178 45.4901L37.6635 43.2097L38.3187 34.164H12.3112L10.5846 12.0735H47.4154L46.8595 19.1875Z" fill="#FC490B"/>
</svg>
