<svg width="32" height="32" viewBox="0 0 32 32" fill="none" xmlns="http://www.w3.org/2000/svg">
<g filter="url(#filter0_i)">
<path fill-rule="evenodd" clip-rule="evenodd" d="M7.23023 24.375H11.127V12.6516H7.23023V24.375ZM9.15332 11.0508H9.17871C10.5376 11.0508 11.3833 10.1506 11.3833 9.02563C11.3579 7.87524 10.5376 7 9.20459 7C7.87158 7 7 7.87524 7 9.02563C7 10.1506 7.8457 11.0508 9.15332 11.0508ZM21.2815 18.1033V24.375H25.1777V17.6528C25.1777 14.052 23.2554 12.3765 20.6916 12.3765C18.6243 12.3765 17.6977 13.5127 17.1799 14.3115V12.6516H13.2834C13.3345 13.7515 13.2834 24.375 13.2834 24.375H17.1799V17.8281C17.1799 17.4778 17.2051 17.1277 17.3081 16.8772C17.5898 16.1772 18.231 15.4521 19.3074 15.4521C20.7173 15.4521 21.2815 16.5271 21.2815 18.1033Z" fill="white"/>
</g>
<defs>
<filter id="filter0_i" x="7" y="7" width="18.1777" height="22.375" filterUnits="userSpaceOnUse" color-interpolation-filters="sRGB">
<feFlood flood-opacity="0" result="BackgroundImageFix"/>
<feBlend mode="normal" in="SourceGraphic" in2="BackgroundImageFix" result="shape"/>
<feColorMatrix in="SourceAlpha" type="matrix" values="0 0 0 0 0 0 0 0 0 0 0 0 0 0 0 0 0 0 127 0" result="hardAlpha"/>
<feOffset dy="5"/>
<feGaussianBlur stdDeviation="5"/>
<feComposite in2="hardAlpha" operator="arithmetic" k2="-1" k3="1"/>
<feColorMatrix type="matrix" values="0 0 0 0 0 0 0 0 0 0 0 0 0 0 0 0 0 0 0.25 0"/>
<feBlend mode="normal" in2="shape" result="effect1_innerShadow"/>
</filter>
</defs>
</svg>
