<svg width="32" height="32" viewBox="0 0 32 32" fill="none" xmlns="http://www.w3.org/2000/svg">
<g filter="url(#filter0_i)">
<path d="M19.4198 16.8371L17.5559 18.7264C16.8001 19.4926 15.4702 19.5091 14.698 18.7264L12.8341 16.8371L6.13965 23.622C6.38884 23.7384 6.66359 23.8078 6.95568 23.8078H25.2983C25.5903 23.8078 25.865 23.7385 26.1141 23.622L19.4198 16.8371Z" fill="white"/>
<path d="M25.2982 8H6.95559C6.6635 8 6.38875 8.06947 6.13965 8.18587L13.2931 15.4365C13.2936 15.437 13.2942 15.4371 13.2946 15.4376C13.2951 15.4381 13.2952 15.4387 13.2952 15.4387L15.6212 17.7963C15.8683 18.0459 16.3856 18.0459 16.6326 17.7963L18.9582 15.4391C18.9582 15.4391 18.9587 15.4381 18.9592 15.4376C18.9592 15.4376 18.9602 15.437 18.9607 15.4365L26.114 8.18583C25.8649 8.06938 25.5903 8 25.2982 8Z" fill="white"/>
<path d="M5.20803 9.10709C5.07911 9.37046 5 9.66282 5 9.97599V21.8319C5 22.1451 5.07902 22.4374 5.20798 22.7008L11.914 15.9042L5.20803 9.10709Z" fill="white"/>
<path d="M27.0468 9.10696L20.3408 15.9041L27.0468 22.7008C27.1757 22.4375 27.2548 22.1451 27.2548 21.8319V9.97596C27.2548 9.6627 27.1757 9.37034 27.0468 9.10696Z" fill="white"/>
</g>
<defs>
<filter id="filter0_i" x="5" y="8" width="22.2548" height="20.8078" filterUnits="userSpaceOnUse" color-interpolation-filters="sRGB">
<feFlood flood-opacity="0" result="BackgroundImageFix"/>
<feBlend mode="normal" in="SourceGraphic" in2="BackgroundImageFix" result="shape"/>
<feColorMatrix in="SourceAlpha" type="matrix" values="0 0 0 0 0 0 0 0 0 0 0 0 0 0 0 0 0 0 127 0" result="hardAlpha"/>
<feOffset dy="5"/>
<feGaussianBlur stdDeviation="5"/>
<feComposite in2="hardAlpha" operator="arithmetic" k2="-1" k3="1"/>
<feColorMatrix type="matrix" values="0 0 0 0 0 0 0 0 0 0 0 0 0 0 0 0 0 0 0.25 0"/>
<feBlend mode="normal" in2="shape" result="effect1_innerShadow"/>
</filter>
</defs>
</svg>
