<svg width="214" height="214" viewBox="0 0 214 214" fill="none" xmlns="http://www.w3.org/2000/svg">
<g clip-path="url(#clip0)" filter="url(#filter0_i)">
<path d="M87.9926 67.3649C98.2754 67.3649 106.611 59.0291 106.611 48.7463C106.611 38.4635 98.2754 30.1277 87.9926 30.1277C77.7099 30.1277 69.374 38.4635 69.374 48.7463C69.374 59.0291 77.7099 67.3649 87.9926 67.3649Z" fill="white"/>
<path d="M190.921 165.912C181.277 148.995 166.816 137.453 149.063 130.18C147.966 108.162 137.262 87.4359 120.085 73.4488C111.363 66.3431 99.3267 64.9939 90.8255 73.6054C90.3022 74.1323 89.8216 74.7055 89.3659 75.2964C71.8438 65.3143 52.5488 57.8384 34.7348 51.7936C21.2211 47.2083 15.4682 68.5289 28.8679 73.075C49.0351 79.9137 71.203 88.778 89.6579 101.629C90.0779 102.057 90.5087 102.477 90.9822 102.865C101.559 111.473 108.127 121.704 107.764 135.559C107.703 137.82 107.963 139.871 108.454 141.747C107.305 148.895 105.635 155.965 103.527 162.896C97.0021 156.154 90.9252 149.027 85.8736 141.01C76.4112 126.012 52.5346 139.846 62.0539 154.929C72.1962 171.017 85.4251 184.345 99.3374 197.15C105.183 202.537 117.369 202.953 121 194.359C126.454 181.447 130.804 168.439 133.737 155.025C134.627 154.805 135.499 154.509 136.357 154.192C137.29 154.826 138.319 155.374 139.472 155.819C148.365 159.219 155.734 164.655 161.541 171.754C155.186 178.382 148.219 184.288 139.853 188.542C124.001 196.616 137.963 220.411 153.776 212.355C167.582 205.331 178.888 194.395 188.749 182.615C192.829 177.777 194.196 171.672 190.921 165.912Z" fill="white"/>
<path d="M76.3832 27.3012C78.982 26.34 81.7801 24.4141 84.71 24.4141C91.3066 24.4141 97.2802 27.0769 101.638 31.3738C98.8003 23.5134 96.0413 15.6209 93.4604 7.66799C89.0923 -5.81358 67.7824 -0.0428849 72.1789 13.5348C73.5246 17.6822 74.9628 23.1787 76.3832 27.3012Z" fill="white"/>
</g>
<defs>
<filter id="filter0_i" x="0" y="0" width="214" height="218" filterUnits="userSpaceOnUse" color-interpolation-filters="sRGB">
<feFlood flood-opacity="0" result="BackgroundImageFix"/>
<feBlend mode="normal" in="SourceGraphic" in2="BackgroundImageFix" result="shape"/>
<feColorMatrix in="SourceAlpha" type="matrix" values="0 0 0 0 0 0 0 0 0 0 0 0 0 0 0 0 0 0 127 0" result="hardAlpha"/>
<feOffset dy="4"/>
<feGaussianBlur stdDeviation="2"/>
<feComposite in2="hardAlpha" operator="arithmetic" k2="-1" k3="1"/>
<feColorMatrix type="matrix" values="0 0 0 0 0 0 0 0 0 0 0 0 0 0 0 0 0 0 0.25 0"/>
<feBlend mode="normal" in2="shape" result="effect1_innerShadow"/>
</filter>
<clipPath id="clip0">
<rect width="214" height="214" fill="white"/>
</clipPath>
</defs>
</svg>
