<svg width="225" height="225" viewBox="0 0 225 225" fill="none" xmlns="http://www.w3.org/2000/svg">
<g clip-path="url(#clip0)">
<g filter="url(#filter0_i)">
<path d="M61.0851 195.301C57.6049 201.238 57.7945 208.562 63.7577 212.967C68.8604 216.728 77.9437 216.239 81.4314 210.298C88.6419 198 101.717 188.739 101.717 188.739C101.717 188.739 96.9025 178.132 94.6241 158.255C94.6203 158.259 69.2888 181.301 61.0851 195.301Z" fill="white"/>
<path d="M163.939 88.3265C149.142 75.1566 133.269 63.34 115.899 53.836C114.03 52.4219 111.892 51.3149 109.636 50.5757C108.127 49.9653 106.645 49.6696 105.22 49.6279C102.835 49.355 100.447 49.4763 98.2594 50.0639C92.4857 51.6106 88.5885 55.1439 86.3708 59.64C75.6688 72.1389 66.7296 85.7221 58.7078 100.075C50.7429 114.314 72.5715 127.055 80.5289 112.828C83.0158 108.373 85.5785 103.983 88.2549 99.6768C90.5636 115.235 92.8686 130.793 95.1697 146.348C95.636 149.502 97.1372 152.216 99.2337 154.423C102.585 176.57 108.738 198.417 118.439 218.517C125.517 233.188 147.304 220.363 140.26 205.761C133.012 190.744 128.167 174.121 125.183 157.353C131.742 152.785 134.119 144.559 132.89 136.241C130.608 120.88 128.337 105.511 126.055 90.1462C132.962 95.1314 139.627 100.477 146.053 106.197C158.21 116.983 176.146 99.1764 163.939 88.3265Z" fill="white"/>
<path d="M103.321 44.0363C115.481 44.0363 125.339 34.1785 125.339 22.0182C125.339 9.85787 115.481 0 103.321 0C91.1606 0 81.3027 9.85787 81.3027 22.0182C81.3027 34.1785 91.1606 44.0363 103.321 44.0363Z" fill="white"/>
</g>
</g>
<defs>
<filter id="filter0_i" x="56.9873" y="0" width="111.03" height="229.001" filterUnits="userSpaceOnUse" color-interpolation-filters="sRGB">
<feFlood flood-opacity="0" result="BackgroundImageFix"/>
<feBlend mode="normal" in="SourceGraphic" in2="BackgroundImageFix" result="shape"/>
<feColorMatrix in="SourceAlpha" type="matrix" values="0 0 0 0 0 0 0 0 0 0 0 0 0 0 0 0 0 0 127 0" result="hardAlpha"/>
<feOffset dy="4"/>
<feGaussianBlur stdDeviation="2"/>
<feComposite in2="hardAlpha" operator="arithmetic" k2="-1" k3="1"/>
<feColorMatrix type="matrix" values="0 0 0 0 0 0 0 0 0 0 0 0 0 0 0 0 0 0 0.25 0"/>
<feBlend mode="normal" in2="shape" result="effect1_innerShadow"/>
</filter>
<clipPath id="clip0">
<rect width="225" height="225" fill="white"/>
</clipPath>
</defs>
</svg>
