<svg width="226" height="226" viewBox="0 0 226 226" fill="none" xmlns="http://www.w3.org/2000/svg">
<g clip-path="url(#clip0)">
<path d="M73.6435 49.2042L76.3283 59.2239C76.8776 61.2673 78.2153 63.0092 80.0478 64.0671C81.8802 65.1251 84.0577 65.4127 86.1019 64.8667L112.005 57.9259C114.049 57.3766 115.791 56.0388 116.849 54.2064C117.907 52.3739 118.194 50.1965 117.648 48.1522L114.962 38.1319C114.807 37.5536 114.429 37.0606 113.91 36.7612C113.392 36.4618 112.775 36.3806 112.197 36.5353L75.2407 46.4377C74.6712 46.6072 74.1883 46.9883 73.8912 47.5029C73.5941 48.0174 73.5055 48.6263 73.6435 49.2042ZM111.186 41.484L113.287 49.3228C113.501 50.2088 113.366 51.1431 112.91 51.9325C112.454 52.7219 111.713 53.3058 110.838 53.5635L84.9305 60.5017C84.0435 60.7379 83.099 60.6128 82.3041 60.1539C81.5092 59.6949 80.9287 58.9396 80.6897 58.0533L78.5887 50.2157L111.186 41.484Z" fill="#6CAE00"/>
<path d="M120.288 22.5217L61.228 38.3469C60.9414 38.4235 60.6727 38.5558 60.4372 38.7363C60.2018 38.9169 60.0043 39.1421 59.8559 39.399C59.7076 39.6559 59.6113 39.9396 59.5727 40.2337C59.5341 40.5279 59.5538 40.8268 59.6308 41.1133L65.2771 62.1858C66.6105 67.161 69.8655 71.4027 74.3261 73.9781C78.7868 76.5534 84.0878 77.2515 89.063 75.9186L93.0988 74.8373L111.218 142.454L86.113 149.181C85.5347 149.336 85.0416 149.715 84.7422 150.233C84.4429 150.752 84.3616 151.368 84.5164 151.947L90.8712 175.667C93.8676 186.969 100.181 197.115 108.998 204.795C117.815 212.476 128.731 217.338 140.337 218.757C140.922 218.829 141.511 218.671 141.981 218.316C151.321 211.283 158.342 201.614 162.137 190.555C165.932 179.495 166.328 167.553 163.275 156.266L156.92 132.546C156.843 132.26 156.711 131.991 156.53 131.755C156.35 131.52 156.124 131.322 155.868 131.174C155.611 131.026 155.327 130.929 155.033 130.891C154.739 130.852 154.44 130.872 154.153 130.949L129.05 137.676L110.932 70.0587L114.968 68.9785C119.943 67.645 124.185 64.3898 126.76 59.929C129.336 55.4681 130.034 50.167 128.701 45.1915L123.054 24.1183C122.977 23.8318 122.845 23.5631 122.664 23.3278C122.484 23.0924 122.259 22.8949 122.002 22.7466C121.745 22.5983 121.461 22.5022 121.167 22.4636C120.873 22.425 120.575 22.4447 120.288 22.5217ZM153.143 135.898L158.913 157.435C161.694 167.702 161.381 178.562 158.014 188.652C154.647 198.742 148.376 207.613 139.986 214.153C129.451 212.685 119.583 208.138 111.622 201.083C103.661 194.028 97.9599 184.78 95.2349 174.497L89.4638 152.959L112.384 146.818L115.25 157.513C115.865 159.806 117.365 161.761 119.421 162.948C121.477 164.135 123.92 164.457 126.214 163.843L126.753 163.698C127.889 163.394 128.954 162.869 129.886 162.154C130.819 161.438 131.602 160.546 132.19 159.528C132.777 158.509 133.159 157.385 133.312 156.22C133.466 155.054 133.388 153.87 133.083 152.734L130.218 142.039L153.143 135.898ZM128.651 153.64C128.811 154.238 128.852 154.862 128.771 155.476C128.691 156.089 128.49 156.681 128.18 157.217C127.871 157.753 127.459 158.223 126.968 158.6C126.476 158.977 125.916 159.253 125.318 159.414C124.72 159.574 124.096 159.615 123.483 159.534C122.869 159.453 122.277 159.252 121.741 158.943C121.205 158.633 120.735 158.221 120.358 157.73C119.981 157.239 119.705 156.678 119.545 156.08L116.167 143.469L97.4624 73.668L106.569 71.228L128.651 153.64ZM124.337 46.3607C125.36 50.1789 124.825 54.2471 122.848 57.6704C120.872 61.0937 117.616 63.5917 113.798 64.6148L107.585 66.2796L94.115 69.8918L87.8983 71.5575C84.0801 72.5805 80.0119 72.0449 76.5886 70.0685C73.1653 68.092 70.6673 64.8367 69.6442 61.0185L64.5782 42.1261L119.275 27.4691L124.337 46.3607Z" fill="#6CAE00"/>
<path d="M115.47 187.92C115.254 188.123 115.081 188.368 114.96 188.639C114.839 188.91 114.772 189.202 114.764 189.499C114.757 189.796 114.808 190.091 114.914 190.368C115.021 190.645 115.181 190.898 115.386 191.113C120.978 196.996 128.08 201.228 135.915 203.347C136.494 203.503 137.11 203.423 137.63 203.124C137.887 202.976 138.113 202.779 138.294 202.544C138.475 202.309 138.608 202.041 138.685 201.754C138.762 201.468 138.782 201.169 138.744 200.875C138.706 200.581 138.61 200.297 138.462 200.04C138.314 199.782 138.117 199.557 137.882 199.376C137.647 199.195 137.379 199.062 137.092 198.985C130.056 197.083 123.679 193.282 118.658 187.999C118.246 187.566 117.678 187.314 117.08 187.299C116.482 187.284 115.903 187.508 115.47 187.92Z" fill="#6CAE00"/>
</g>
<defs>
<clipPath id="clip0">
<rect width="165.207" height="165.207" fill="white" transform="translate(0 143.073) rotate(-60)"/>
</clipPath>
</defs>
</svg>
