<svg width="61" height="55" viewBox="0 0 61 55" fill="none" xmlns="http://www.w3.org/2000/svg">
<path d="M17.8752 0C16.8752 0 13.3752 2 12.8752 3C12.3752 4 0.875163 23.5 0.375163 24.5C-0.124837 25.5 -0.125271 28.5 0.375163 29.5C0.875597 30.5 11.8752 49.5 12.8752 51C13.8752 52.5 16.3752 54.5 17.8752 54.5H43.3752C44.3752 54.5 47.8752 52 48.3752 51C48.8752 50 60.3752 30.5 60.3752 29.5V24.5C60.3752 23.5 48.8752 5 48.3752 4C47.8752 3 44.3752 0 43.3752 0H17.8752Z" fill="#6CB33E"/>
<path d="M43.375 27.5635C43.375 34.0635 37.4635 39.0635 30.875 39.0635C21.875 39.0635 18.3752 31.5635 18.3752 27.5635C18.3752 21.0635 23.375 16.5003 23.875 16.0003C24.375 15.5003 23.9549 14.3753 23.375 13.5635C22.6846 12.597 21.375 12.5003 20.875 13.0003C20.375 13.5003 13.875 17.7775 13.875 27.5635C13.875 36.5635 21.4831 43.6995 30.875 43.5635C40.1258 43.4295 47.875 36.3153 47.875 27.0635C47.875 18.0635 40.875 13.5003 40.375 13.0003C39.875 12.5003 38.579 12.8595 37.875 13.5635C37.171 14.2675 36.875 15.5003 37.375 16.0003C37.875 16.5003 43.375 21.0635 43.375 27.5635Z" fill="white"/>
<path d="M30.375 29.0003C28.9943 29.0003 27.875 28.0003 27.875 26.5003V11.0003C27.875 9.50027 29.1248 8.98653 30.375 9.00027C31.7556 9.01544 32.875 9.50027 32.875 11.0003V26.5003C32.875 28.0003 31.7557 29.0003 30.375 29.0003Z" fill="white"/>
</svg>
