<svg width="55" height="55" viewBox="0 0 55 55" fill="none" xmlns="http://www.w3.org/2000/svg">
<path d="M5 0C2.5 0 0 1.5 0 5V50C0 52.5 1 55 5 55H50C52.5 55 55 53.5 55 50V5C55 2 53.5 0 50 0H5Z" fill="#3178C6"/>
<path d="M12.5 30.5001V26.0001H32V30.5001H25V50.0001H19.5V30.5001H12.5Z" fill="white"/>
<path d="M49.5 26.5001V31C46.3333 29.5 39.8 29 39.5 32C39 37 50.5 34.4999 50.5 44C50.5 51.6001 39.5 50.5001 34 49V44.5C35.5 45.5 45 48.0001 45 44.0001C45 39.0001 34 40.1105 34 32.0001C34 24.5 44.1667 25.1668 49.5 26.5001Z" fill="white"/>
</svg>
